<svg width="31" height="29" viewBox="0 0 31 29" fill="none" xmlns="http://www.w3.org/2000/svg">
<path d="M14.9834 22.7816C14.9834 22.2294 15.4311 21.7816 15.9834 21.7816C16.5357 21.7816 16.9834 22.2294 16.9834 22.7816V27.7816C16.9834 28.3339 16.5357 28.7816 15.9834 28.7816C15.4311 28.7816 14.9834 28.3339 14.9834 27.7816V22.7816Z" fill="#D8E3FE"/>
<path d="M10.6156 21.0905C10.8932 20.6131 11.5052 20.451 11.9827 20.7285C12.4602 21.0061 12.6222 21.6182 12.3447 22.0957L9.83186 26.4184C9.5543 26.8958 8.94223 27.0579 8.46476 26.7803C7.98729 26.5028 7.82522 25.8907 8.10278 25.4132L10.6156 21.0905Z" fill="#E4EDFF"/>
<path d="M8.18769 2.13708C7.90982 1.65978 8.07149 1.0476 8.54878 0.769738C9.02607 0.491871 9.63825 0.653537 9.91612 1.13083L12.4317 5.45191C12.7096 5.9292 12.5479 6.54138 12.0706 6.81924C11.5933 7.09711 10.9812 6.93544 10.7033 6.45815L8.18769 2.13708Z" fill="white"/>
<path d="M3.41075 7.74695C2.94065 7.45707 2.79456 6.84099 3.08444 6.3709C3.37432 5.9008 3.9904 5.75471 4.46049 6.04459L8.71639 8.66895C9.18649 8.95883 9.33258 9.57491 9.0427 10.045C8.75282 10.5151 8.13674 10.6612 7.66665 10.3713L3.41075 7.74695Z" fill="white"/>
<path d="M1.98335 14.7905C1.43109 14.7856 0.987348 14.334 0.992227 13.7817C0.997107 13.2294 1.44876 12.7857 2.00102 12.7906L7.00083 12.8347C7.55309 12.8396 7.99683 13.2913 7.99195 13.8435C7.98707 14.3958 7.53542 14.8395 6.98316 14.8347L1.98335 14.7905Z" fill="#F4F8FF"/>
<path d="M7.7961 17.4948C8.26953 17.2104 8.88387 17.3637 9.16827 17.8371C9.45268 18.3105 9.29944 18.9249 8.82601 19.2093L4.53994 21.7841C4.06651 22.0685 3.45217 21.9152 3.16777 21.4418C2.88336 20.9684 3.0366 20.354 3.51002 20.0696L7.7961 17.4948Z" fill="#EFF4FF"/>
<path d="M27.6757 6.02456C28.1595 5.75826 28.7676 5.93463 29.0339 6.41847C29.3002 6.90232 29.1238 7.51042 28.64 7.77672L24.2596 10.1875C23.7758 10.4538 23.1677 10.2775 22.9014 9.79364C22.6351 9.30979 22.8114 8.70168 23.2953 8.43539L27.6757 6.02456Z" fill="#B4C9FF"/>
<path d="M29.9835 12.7945C30.5357 12.7874 30.9892 13.2293 30.9963 13.7816C31.0034 14.3338 30.5614 14.7872 30.0092 14.7943L25.0096 14.8587C24.4574 14.8658 24.0039 14.4238 23.9968 13.8716C23.9897 13.3194 24.4317 12.8659 24.9839 12.8588L29.9835 12.7945Z" fill="#BBCEFF"/>
<path d="M28.484 20.1935C28.9518 20.4871 29.0931 21.1043 28.7996 21.5721C28.506 22.0399 27.8888 22.1812 27.421 21.8877L23.1852 19.2299C22.7173 18.9364 22.576 18.3192 22.8696 17.8514C23.1631 17.3836 23.7803 17.2423 24.2481 17.5358L28.484 20.1935Z" fill="#C4D5FF"/>
<path d="M19.7386 22.0413C19.4412 21.5759 19.5775 20.9576 20.0429 20.6603C20.5083 20.3629 21.1266 20.4992 21.424 20.9646L24.1163 25.1788C24.4137 25.6442 24.2774 26.2625 23.812 26.5599C23.3466 26.8572 22.7283 26.721 22.4309 26.2556L19.7386 22.0413Z" fill="#CDDBFF"/>
</svg>
