<svg width="30" height="30" viewBox="0 0 30 30" fill="none" xmlns="http://www.w3.org/2000/svg">
<path d="M15 28.5003C22.4558 28.5003 28.5 22.4562 28.5 15.0003C28.5 7.54446 22.4558 1.50031 15 1.50031C7.54416 1.50031 1.5 7.54446 1.5 15.0003C1.5 22.4562 7.54416 28.5003 15 28.5003Z" fill="#F99400"/>
<path fill-rule="evenodd" clip-rule="evenodd" d="M13.7172 17.7771C13.2303 17.664 12.7764 17.5005 12.345 17.2785C12.1905 17.1987 12.0384 17.1132 11.8908 17.0214C11.4555 16.7496 11.3202 16.1889 11.5818 15.7575C11.8509 15.3144 12.4086 15.1704 12.8538 15.4404C13.2918 15.7053 13.7559 15.8979 14.2602 15.9888C15.2526 16.167 16.185 16.0029 17.0538 15.492C17.2311 15.3876 17.4102 15.3057 17.6217 15.3069C18.0318 15.3093 18.3909 15.5718 18.51 15.9621C18.6297 16.3554 18.4806 16.7811 18.1323 17.0052C17.5896 17.3544 17.0019 17.6004 16.3761 17.7546C16.3491 17.7609 16.3227 17.7687 16.2849 17.7786C16.3104 17.8062 16.3302 17.8278 16.3512 17.8488C16.9074 18.405 17.4639 18.9603 18.0195 19.5174C18.3444 19.8432 18.4128 20.2902 18.1971 20.6628C17.8866 21.1995 17.1726 21.2886 16.7253 20.844C16.1709 20.2926 15.6195 19.7388 15.0672 19.1865C15.0474 19.1667 15.0288 19.1454 14.9847 19.0974C14.9664 19.1301 14.9565 19.1619 14.9361 19.1823C14.3826 19.7379 13.8291 20.2926 13.2732 20.8458C12.8919 21.2262 12.3096 21.2238 11.9406 20.8446C11.6031 20.4978 11.5935 19.947 11.9199 19.5831C11.964 19.5333 12.012 19.4865 12.0588 19.4394C12.5898 18.9081 13.1205 18.3777 13.6515 17.8461C13.6698 17.8275 13.6887 17.8068 13.7172 17.7771Z" fill="white"/>
<path fill-rule="evenodd" clip-rule="evenodd" d="M15.0015 8.87012C16.743 8.87012 18.1638 10.2915 18.1635 12.033C18.1632 13.7766 16.7559 15.1959 15.0027 15.1965C13.2396 15.1983 11.8395 13.7769 11.8368 12.039C11.8338 10.2951 13.2447 8.87492 15.0015 8.87012ZM16.3086 12.036C16.3092 11.3154 15.7263 10.7277 15.0093 10.7259C14.2827 10.7241 13.6908 11.3067 13.6896 12.0243C13.6884 12.7431 14.2713 13.3416 14.9748 13.3422C15.7203 13.3428 16.308 12.7674 16.3086 12.036Z" fill="white"/>
</svg>
