<svg width="30" height="30" viewBox="0 0 30 30" fill="none" xmlns="http://www.w3.org/2000/svg">
<path d="M15 30C23.2843 30 30 23.2843 30 15C30 6.71573 23.2843 0 15 0C6.71573 0 0 6.71573 0 15C0 23.2843 6.71573 30 15 30Z" fill="#4D76A1"/>
<path fill-rule="evenodd" clip-rule="evenodd" d="M14.4317 21.5801H15.6094C15.6094 21.5801 15.9668 21.5391 16.1485 21.3457C16.3184 21.1641 16.3125 20.8301 16.3125 20.8301C16.3125 20.8301 16.2891 19.2481 17.0215 19.0196C17.7422 18.791 18.6738 20.543 19.6582 21.2227C20.4024 21.7325 20.9649 21.6211 20.9649 21.6211L23.5957 21.586C23.5957 21.586 24.9727 21.5039 24.3164 20.42C24.2637 20.3321 23.9356 19.6172 22.3594 18.1582C20.7129 16.6289 20.9297 16.875 22.916 14.2266C24.1289 12.6153 24.6094 11.6309 24.4571 11.209C24.3106 10.8047 23.4258 10.916 23.4258 10.916L20.461 10.9336C20.461 10.9336 20.2442 10.9043 20.0801 10.9981C19.9219 11.0918 19.8164 11.3145 19.8164 11.3145C19.8164 11.3145 19.3477 12.5625 18.7207 13.6231C17.4024 15.8614 16.875 15.9785 16.6582 15.8438C16.1543 15.5157 16.2832 14.543 16.2832 13.8457C16.2832 11.6778 16.6113 10.7696 15.6445 10.5352C15.3223 10.459 15.0879 10.4063 14.2617 10.4004C13.207 10.3887 12.3106 10.4004 11.8008 10.6524C11.4668 10.8164 11.2031 11.1856 11.3613 11.2032C11.5547 11.2266 12 11.3262 12.2344 11.6426C12.5391 12.0528 12.5274 12.9844 12.5274 12.9844C12.5274 12.9844 12.7031 15.5391 12.1172 15.8555C11.7188 16.0723 11.168 15.627 9.99611 13.5996C9.39259 12.5567 8.94142 11.4082 8.94142 11.4082C8.94142 11.4082 8.85353 11.1914 8.69533 11.0801C8.50197 10.9395 8.2383 10.8985 8.2383 10.8985L5.42579 10.916C5.42579 10.916 5.00392 10.9278 4.84572 11.1094C4.71095 11.2735 4.834 11.6133 4.834 11.6133C4.834 11.6133 7.03712 16.7696 9.53322 19.3653C11.836 21.7383 14.4317 21.5801 14.4317 21.5801Z" fill="white"/>
</svg>
