<svg width="30" height="30" viewBox="0 0 30 30" fill="none" xmlns="http://www.w3.org/2000/svg">
<path d="M28.1364 14.3916C28.1388 14.3916 28.1406 14.3916 28.143 14.3916C28.3104 14.3916 28.47 14.3214 28.5834 14.1984C28.6986 14.0736 28.7556 13.9062 28.7406 13.737C28.1382 7.11119 22.8924 1.86359 16.266 1.25999C16.098 1.24679 15.9288 1.30139 15.804 1.41719C15.6792 1.53239 15.6096 1.69499 15.6114 1.86479C15.7158 10.6704 16.8774 14.2686 28.1364 14.3916ZM28.1364 15.6084C16.8774 15.7314 15.7164 19.3296 15.612 28.1352C15.6102 28.305 15.6798 28.4676 15.8046 28.5828C15.9162 28.6854 16.062 28.7424 16.212 28.7424C16.23 28.7424 16.2486 28.7418 16.2666 28.74C22.893 28.1364 28.1388 22.8894 28.7406 16.263C28.7556 16.0938 28.6992 15.9264 28.5834 15.8016C28.4676 15.6768 28.3062 15.615 28.1364 15.6084ZM13.6938 1.26299C7.08841 1.88399 1.85941 7.13039 1.26001 13.7382C1.24501 13.9074 1.30141 14.0748 1.41721 14.1996C1.53061 14.3226 1.69081 14.3922 1.85761 14.3922C1.86001 14.3922 1.86241 14.3922 1.86481 14.3922C13.0866 14.2632 14.2452 10.6668 14.3508 1.86719C14.3526 1.69739 14.2824 1.53419 14.1576 1.41899C14.0316 1.30379 13.863 1.24739 13.6938 1.26299ZM1.86421 15.6078C1.67761 15.5868 1.53121 15.6756 1.41661 15.8004C1.30141 15.9252 1.24441 16.0926 1.25941 16.2618C1.85881 22.8696 7.08841 28.116 13.6938 28.737C13.7124 28.7388 13.7316 28.7394 13.7502 28.7394C13.9002 28.7394 14.0454 28.683 14.157 28.5804C14.2818 28.4652 14.352 28.302 14.3502 28.1322C14.2446 19.3332 13.0866 15.7368 1.86421 15.6078Z" fill="black"/>
</svg>
